<svg width="40" height="40" viewBox="0 0 40 40" fill="none" xmlns="http://www.w3.org/2000/svg">
<path d="M40 19.9216C40 25.7255 40 31.3725 40 37.1765C40 38.7451 38.75 40 37.1875 40C25.625 40 14.2188 40 2.65625 40C1.09375 40 0 38.902 0 37.3333C0 25.7255 0 14.2745 0 2.66666C0 1.09803 1.09375 0 2.65625 0C14.2188 0 25.625 0 37.1875 0C38.75 0 39.8438 1.2549 39.8438 2.66666C40 8.31372 40 14.1176 40 19.9216ZM12.0312 30.4314C12.0312 30.2745 12.1875 30.1176 12.1875 29.9608C12.6562 28.549 12.9688 27.1373 13.4375 25.7255C13.5938 25.4118 13.75 25.2549 14.0625 25.2549C15.625 25.2549 17.1875 25.2549 18.75 25.2549C19.2188 25.2549 19.375 25.4118 19.5312 25.8824C19.8438 27.2941 20.3125 28.7059 20.7812 30.1176C20.7812 30.4314 20.9375 30.5882 21.25 30.5882C22.6562 30.5882 24.0625 30.5882 25.4688 30.5882C25.4688 30.5882 25.625 30.5882 25.7812 30.5882C25.7812 30.4314 25.7812 30.4314 25.7812 30.2745C25.3125 28.8627 24.8438 27.2941 24.375 25.8824C22.8125 20.8627 21.25 15.6863 19.6875 10.6667C19.6875 10.3529 19.5312 10.3529 19.2188 10.3529C17.5 10.3529 15.625 10.3529 13.9063 10.3529C13.5938 10.3529 13.4375 10.5098 13.4375 10.6667C13.125 11.6078 12.8125 12.7059 12.5 13.6471C10.9375 18.6667 9.375 23.6863 7.8125 28.8627C7.65625 29.4902 7.5 30.1176 7.34375 30.7451C8.90625 30.4314 10.4688 30.4314 12.0312 30.4314ZM28.125 23.0588C28.125 25.4118 28.125 27.6078 28.125 29.9608C28.125 30.2745 28.2813 30.4314 28.5938 30.4314C29.8438 30.4314 30.9375 30.4314 32.1875 30.4314C32.5 30.4314 32.6562 30.2745 32.6562 29.9608C32.6562 25.4118 32.6562 20.7059 32.6562 16.1569C32.6562 15.6863 32.5 15.6863 32.1875 15.6863C31.0938 15.6863 29.8438 15.6863 28.75 15.6863C28.2812 15.6863 28.125 15.8431 28.125 16.3137C28.125 18.5098 28.125 20.8627 28.125 23.0588ZM30.4688 13.8039C31.875 13.8039 32.9688 12.8627 32.9688 11.6078C32.9688 10.3529 31.875 9.2549 30.625 9.2549C29.2188 9.2549 28.125 10.1961 28.125 11.6078C28.125 12.8627 29.0625 13.8039 30.4688 13.8039Z" fill="#FEFBEA" fill-opacity="0.8"/>
<path d="M16.25 13.6471C17.0312 16.3138 17.8125 18.9804 18.5937 21.804C17.1875 21.804 15.625 21.804 14.2187 21.804C14.8437 19.1373 15.625 16.3138 16.25 13.6471Z" fill="#FEFBEA" fill-opacity="0.8"/>
</svg>
