<svg width="54" height="54" viewBox="0 0 54 54" fill="none" xmlns="http://www.w3.org/2000/svg">
<g clip-path="url(#clip0_32_11)">
<path d="M21.5156 24.0468V15.7207H27.5231C30.807 15.7207 32.7274 17.2631 32.7274 19.8956C32.7274 22.6023 30.6889 24.0468 26.7739 24.0468H21.5156ZM21.5156 36.7436H27.9214C31.9174 36.7436 34.0301 35.1236 34.0301 32.0962C34.0301 29.1093 31.8364 27.5467 27.6649 27.5467H21.5156V36.7436Z" fill="#5E3D63"/>
<path d="M13.5069 0C9.92645 0 6.49267 1.42232 3.96093 3.95406C1.42919 6.4858 0.00687408 9.91958 0.00687408 13.5V40.5C0.00687408 44.0804 1.42919 47.5142 3.96093 50.0459C6.49267 52.5777 9.92645 54 13.5069 54H40.5069C44.0873 54 47.5211 52.5777 50.0528 50.0459C52.5846 47.5142 54.0069 44.0804 54.0069 40.5V13.5C54.0069 9.91958 52.5846 6.4858 50.0528 3.95406C47.5211 1.42232 44.0873 0 40.5069 0L13.5069 0ZM17.0844 40.5V11.9644H28.556C33.9121 11.9644 37.1386 14.6948 37.1386 19.0856C37.1386 22.0691 34.9449 24.7388 32.1335 25.2146V25.5521C35.9911 25.947 38.5595 28.6943 38.5595 32.4135C38.5595 37.4355 34.901 40.5 28.8125 40.5H17.0844Z" fill="#5E3D63"/>
</g>
<defs>
<clipPath id="clip0_32_11">
<rect width="54" height="54" fill="white"/>
</clipPath>
</defs>
</svg>
