<svg width="31" height="33" viewBox="0 0 31 33" fill="none" xmlns="http://www.w3.org/2000/svg">
<path d="M30.0927 0.00012207C20.1697 0.00012207 10.2466 0.00012207 0.431437 0.00012207C0.215719 0.00012207 0.107859 0.00012207 0 0.00012207C0 0.309739 0 0.51615 0 0.825767C0.107859 1.3418 0.107859 1.85782 0.215719 2.27065C0.323578 3.92194 0.539297 5.47002 0.647156 7.12131C0.755015 8.46298 0.862874 9.70145 0.970734 11.0431C1.07859 12.5912 1.29431 14.1393 1.40217 15.6874C1.51003 16.513 1.51003 17.2355 1.61789 18.0611C1.72575 19.7124 1.94147 21.3637 2.04933 22.9118C2.15719 24.4599 2.3729 26.0079 2.48076 27.556C2.58862 28.1753 2.58862 28.8977 2.69648 29.5169C2.69648 29.6201 2.80434 29.7233 2.9122 29.7233C4.74581 30.2394 6.57942 30.7554 8.41302 31.1682C10.4624 31.6843 12.6195 32.3035 14.6689 32.9227C14.9924 33.0259 15.2082 33.0259 15.5317 32.9227C18.5518 32.0971 21.6797 31.2714 24.6998 30.4458C25.5627 30.2394 26.5334 29.9298 27.3963 29.7233C27.612 29.7233 27.612 29.6201 27.612 29.4137C27.7198 27.7624 27.9356 26.1111 28.0434 24.4599C28.2591 22.7054 28.367 20.8477 28.5827 19.0932C28.6906 17.9579 28.7984 16.8226 28.9063 15.7906C29.0142 14.5521 29.122 13.3136 29.2299 12.1784C29.3377 10.5271 29.5534 8.97901 29.6613 7.32772C29.7692 6.08925 29.877 4.74758 29.9849 3.50911C30.0927 2.37385 30.2006 1.13538 30.3085 0.00012207C30.4163 0.00012207 30.2006 0.00012207 30.0927 0.00012207ZM25.2391 7.22452C25.1312 7.94696 25.1312 8.56619 25.0234 9.28863C25.0234 9.59825 24.8076 9.80466 24.5919 9.90786C23.5133 10.3207 22.3269 10.8367 21.2483 11.3527C19.954 11.8688 18.5518 12.488 17.2575 13.1072C17.0418 13.2104 16.9339 13.2104 16.826 13.4169C19.4147 13.4169 22.1112 13.4169 24.8076 13.4169C24.8076 13.9329 24.6998 14.4489 24.6998 14.8617C24.5919 16.6162 24.3762 18.3707 24.2683 20.1252C24.1605 21.5701 23.9448 23.015 23.8369 24.5631C23.8369 24.7695 23.729 24.8727 23.5133 24.8727C20.9247 25.4919 18.2282 26.2144 15.6396 26.8336C15.5317 26.8336 15.5317 26.8336 15.4239 26.8336C15.4239 26.8336 15.4239 26.8336 15.316 26.9368C14.3453 26.7304 13.3746 26.524 12.5117 26.3176C10.6781 25.9047 8.95232 25.3887 7.22657 24.9759C7.11871 24.9759 6.903 24.7695 6.903 24.6663C6.68728 22.9118 6.57942 21.2605 6.3637 19.506C6.3637 19.4028 6.3637 19.2996 6.3637 19.1964C6.47156 19.1964 6.47156 19.1964 6.57942 19.1964C7.65801 19.1964 8.7366 19.1964 9.8152 19.1964C10.0309 19.1964 10.1388 19.2996 10.2466 19.506C10.2466 20.3316 10.3545 21.0541 10.4624 21.8797C10.4624 22.0861 10.5702 22.1893 10.7859 22.1893C12.4038 22.4989 13.9138 22.7054 15.5317 23.015C16.5025 22.7054 17.4732 22.3957 18.4439 22.0861C18.8754 21.9829 19.4147 21.7765 19.8461 21.6733C19.954 21.6733 20.0618 21.5701 20.0618 21.3637C20.1697 20.022 20.2775 18.5771 20.2775 17.2355C20.2775 17.1323 20.2775 17.0291 20.2775 16.8226C19.8461 16.8226 19.5225 16.8226 19.0911 16.8226C17.9046 16.8226 16.6103 16.8226 15.4239 16.8226C13.4824 16.8226 11.5409 16.8226 9.59948 16.8226C8.41302 16.8226 7.22657 16.8226 6.04012 16.8226C5.93226 16.2034 5.93226 15.5842 5.8244 14.9649C5.8244 14.4489 5.71654 14.0361 5.71654 13.5201C5.71654 13.2104 5.8244 13.004 6.14798 12.9008C8.41302 11.972 10.6781 11.0431 12.9431 10.1143C13.5903 9.80466 14.2374 9.59824 14.8846 9.18542C14.4531 9.18542 14.0217 9.18542 13.5903 9.18542C11.4331 9.18542 9.2759 9.18542 7.11871 9.18542C6.47156 9.28863 5.93226 9.28863 5.39296 9.28863C5.39296 9.28863 5.17725 9.18542 5.17725 9.08222C5.06939 8.05016 4.96153 6.9149 4.85367 5.88284C6.14798 5.88284 7.33443 5.88284 8.62874 5.88284C10.8938 5.88284 13.051 5.88284 15.316 5.88284C16.826 5.88284 18.4439 5.88284 19.954 5.88284C21.6797 5.88284 23.2976 5.88284 25.0234 5.88284C25.1312 5.88284 25.2391 5.88284 25.3469 5.88284C25.3469 6.39887 25.2391 6.81169 25.2391 7.22452Z" fill="#5E3D63"/>
</svg>
