<svg width="45" height="45" viewBox="0 0 45 45" fill="none" xmlns="http://www.w3.org/2000/svg">
<path d="M40.4736 0H4.5264C2.03688 0 0 2.03688 0 4.5264V40.4736C0 42.9631 2.03688 45 4.5264 45H40.4736C42.9631 45 45 42.9631 45 40.4736V4.5264C45 2.03688 42.9254 0 40.4736 0ZM22.5566 35.7963C22.5566 44.2456 9.84493 44.2456 9.84493 35.7963C9.84493 32.2883 12.6739 29.4593 16.1819 29.4593H22.5566V35.7963ZM22.5566 23.0847V29.4216H16.2196C12.7117 29.4216 9.88265 26.5926 9.88265 23.0847C9.88265 19.5767 12.7117 16.7477 16.2196 16.7477H22.5566H16.2196C12.7117 16.7477 9.88265 13.9187 9.88265 10.4107C9.88265 6.90277 12.7117 4.07376 16.2573 4.07376H22.5943H28.9313C37.4183 4.07376 37.4183 16.7854 28.9313 16.7854H22.5566V23.0847C22.5566 14.6354 35.2682 14.6354 35.2682 23.0847C35.2682 31.5717 22.5566 31.5717 22.5566 23.0847Z" fill="#FEFBEA" fill-opacity="0.8"/>
</svg>
