<svg width="54" height="54" viewBox="0 0 54 54" fill="none" xmlns="http://www.w3.org/2000/svg">
<g clip-path="url(#clip0_32_20)">
<path d="M52.981 24.5936L29.4033 1.01927C29.0804 0.696284 28.6971 0.440072 28.2753 0.265267C27.8534 0.0904611 27.4012 0.000488281 26.9446 0.000488281C26.4879 0.000488281 26.0357 0.0904611 25.6139 0.265267C25.192 0.440072 24.8087 0.696284 24.4859 1.01927L19.5921 5.91302L25.8021 12.123C26.5345 11.873 27.3225 11.8338 28.076 12.0101C28.8296 12.1864 29.5184 12.571 30.0639 13.12C30.6093 13.669 30.9895 14.3602 31.1609 15.1149C31.3323 15.8696 31.2882 16.6573 31.0334 17.388L37.0173 23.3753C37.9026 23.0636 38.8676 23.0626 39.7535 23.3726C40.6395 23.6826 41.3934 24.285 41.8912 25.0807C42.3891 25.8763 42.6011 26.8178 42.4924 27.7501C42.3838 28.6823 41.9609 29.5498 41.2934 30.2096C40.6177 30.8895 39.7269 31.3137 38.7731 31.4097C37.8194 31.5057 36.8619 31.2677 36.0642 30.7361C35.2665 30.2046 34.6781 29.4126 34.3995 28.4954C34.1209 27.5783 34.1694 26.5928 34.5366 25.7074L28.9578 20.1251V34.8165C29.8058 35.2363 30.4843 35.934 30.8802 36.7934C31.2762 37.6527 31.3656 38.6218 31.1337 39.5392C30.9017 40.4565 30.3624 41.2666 29.6055 41.8345C28.8487 42.4024 27.9201 42.6937 26.9745 42.6599C26.0289 42.6262 25.1234 42.2693 24.409 41.6489C23.6946 41.0285 23.2144 40.1819 23.0485 39.2504C22.8826 38.3189 23.041 37.3586 23.4972 36.5297C23.9534 35.7007 24.68 35.0532 25.5558 34.695V19.8686C25.0505 19.6616 24.5912 19.3566 24.2043 18.9712C23.8175 18.5858 23.5108 18.1277 23.3018 17.6232C23.0929 17.1187 22.9858 16.5778 22.9869 16.0318C22.988 15.4858 23.0971 14.9453 23.308 14.4416L17.1891 8.31939L1.02289 24.4856C0.699908 24.8085 0.443696 25.1918 0.26889 25.6136C0.0940851 26.0355 0.00411224 26.4877 0.00411224 26.9443C0.00411224 27.401 0.0940851 27.8532 0.26889 28.275C0.443696 28.6969 0.699908 29.0802 1.02289 29.403L24.6006 52.9808C24.9235 53.3037 25.3068 53.56 25.7286 53.7348C26.1505 53.9096 26.6027 53.9995 27.0593 53.9995C27.516 53.9995 27.9682 53.9096 28.39 53.7348C28.8119 53.56 29.1952 53.3037 29.518 52.9808L52.9844 29.5144C53.6359 28.862 54.0018 27.9777 54.0018 27.0557C54.0018 26.1337 53.6359 25.2494 52.9844 24.597" fill="#5E3D63"/>
</g>
<defs>
<clipPath id="clip0_32_20">
<rect width="54" height="54" fill="white"/>
</clipPath>
</defs>
</svg>
