<svg width="48" height="13" viewBox="0 0 48 13" fill="none" xmlns="http://www.w3.org/2000/svg">
<path d="M29.2409 9.72189H29.2255C29.2332 9.72189 29.2332 9.72958 29.2409 9.72958H29.2486L29.2409 9.72189ZM29.2409 9.72958C29.1795 9.72958 29.0181 9.7603 28.8492 9.7603C28.3191 9.7603 28.1348 9.5145 28.1348 9.19188V7.05648H29.2179C29.2793 7.05648 29.3254 7.00271 29.3254 6.92589V5.76601C29.3254 5.70456 29.2716 5.65079 29.2179 5.65079H28.1348V4.2067C28.1348 4.15294 28.0964 4.12221 28.0349 4.12221H26.5601C26.4987 4.12221 26.4679 4.16062 26.4679 4.2067V5.6892C26.4679 5.6892 25.7229 5.87355 25.6768 5.88123C25.623 5.8966 25.5923 5.94268 25.5923 5.99645V6.92589C25.5923 7.00271 25.646 7.05648 25.7075 7.05648H26.4603V9.29942C26.4603 10.9663 27.6201 11.1353 28.4113 11.1353C28.7723 11.1353 29.2102 11.02 29.2793 10.9816C29.3177 10.9663 29.3408 10.9202 29.3408 10.8741V9.85248C29.3408 9.79103 29.3024 9.74494 29.2409 9.72958ZM45.4178 8.23172C45.4178 6.99502 44.9185 6.83372 44.3962 6.88749C43.9891 6.91053 43.6588 7.11793 43.6588 7.11793V9.52218C43.6588 9.52218 43.989 9.75262 44.4883 9.76798C45.1873 9.78335 45.4178 9.52986 45.4178 8.23172ZM47.0769 8.12418C47.0769 10.467 46.3165 11.1353 44.9953 11.1353C43.8738 11.1353 43.2747 10.5668 43.2747 10.5668C43.2747 10.5668 43.2516 10.8818 43.2132 10.9202C43.1902 10.9586 43.1595 10.974 43.1134 10.974H42.1071C42.038 10.974 41.9765 10.9202 41.9765 10.8587L41.9919 3.27726C41.9919 3.21581 42.0457 3.16204 42.1071 3.16204H43.5589C43.6203 3.16204 43.6741 3.21581 43.6741 3.27726V5.85051C43.6741 5.85051 44.2349 5.48948 45.0568 5.48948L45.0491 5.47412C45.8633 5.47412 47.0769 5.78138 47.0769 8.12418ZM41.1239 5.65847H39.6875C39.6107 5.65847 39.5723 5.71224 39.5723 5.78906V9.49914C39.5723 9.49914 39.1959 9.7603 38.6813 9.7603C38.1743 9.7603 38.0207 9.52986 38.0207 9.01521V5.77369C38.0207 5.71224 37.9669 5.65847 37.9054 5.65847H36.446C36.3845 5.65847 36.3308 5.71224 36.3308 5.77369V9.2687C36.3308 10.7666 37.168 11.1429 38.3202 11.1429C39.2727 11.1429 40.0408 10.6206 40.0408 10.6206C40.0408 10.6206 40.0793 10.8895 40.0946 10.9279C40.11 10.9586 40.1561 10.9893 40.2022 10.9893H41.1162C41.193 10.9893 41.2315 10.9355 41.2315 10.8741L41.2468 5.77369C41.2545 5.71224 41.193 5.65847 41.1239 5.65847ZM24.947 5.65079H23.4953C23.4338 5.65079 23.3801 5.71224 23.3801 5.78906V10.7973C23.3801 10.9355 23.4722 10.9816 23.5874 10.9816H24.901C25.0392 10.9816 25.0699 10.9202 25.0699 10.7973V5.76601C25.0623 5.70456 25.0085 5.65079 24.947 5.65079ZM24.225 3.33871C23.7027 3.33871 23.2802 3.75351 23.2802 4.28352C23.2802 4.80585 23.695 5.22832 24.225 5.22832C24.7396 5.22832 25.1544 4.81353 25.1544 4.28352C25.1544 3.76119 24.7396 3.33871 24.225 3.33871ZM35.4858 3.16973H34.0417C33.9803 3.16973 33.9265 3.2235 33.9265 3.28495V6.07327H31.6682V3.28495C31.6682 3.2235 31.6144 3.16973 31.553 3.16973H30.1012C30.0398 3.16973 29.986 3.2235 29.986 3.28495V10.8664C29.986 10.9279 30.0474 10.9816 30.1012 10.9816H31.553C31.6144 10.9816 31.6682 10.9279 31.6682 10.8664V7.62489H33.9265L33.9111 10.8664C33.9111 10.9279 33.9649 10.9816 34.0264 10.9816H35.4781C35.5396 10.9816 35.5934 10.9279 35.5934 10.8664V3.28495C35.601 3.2235 35.5473 3.16973 35.4858 3.16973ZM22.6042 6.52646V10.4439C22.6042 10.467 22.5966 10.5208 22.5658 10.5284C22.5658 10.5284 21.7132 11.1353 20.3075 11.1353C18.6099 11.1353 16.5898 10.6052 16.5898 7.09488C16.5898 3.58452 18.3488 2.86247 20.0694 2.87015C21.5596 2.87015 22.1587 3.20813 22.2509 3.26958C22.2739 3.30799 22.2893 3.33103 22.2893 3.36176L22.0128 4.58309C22.0128 4.64454 21.9513 4.72135 21.8745 4.69831C21.6287 4.6215 21.26 4.47555 20.392 4.47555C19.3858 4.47555 18.3104 4.75976 18.3104 7.02575C18.3104 9.28406 19.332 9.55291 20.0694 9.55291C20.6993 9.55291 20.922 9.47609 20.922 9.47609V7.9091H19.9158C19.839 7.9091 19.7852 7.85533 19.7852 7.79388V6.53414C19.7852 6.47269 19.839 6.41893 19.9158 6.41893H22.4737C22.5505 6.41124 22.6042 6.46501 22.6042 6.52646Z" fill="white"/>
<path fill-rule="evenodd" clip-rule="evenodd" d="M6.83448 0.926788C3.60064 0.926788 0.981308 3.54612 0.981308 6.77996C0.981308 9.36856 2.65584 11.5577 4.98328 12.3336C5.27517 12.3796 5.39039 12.2107 5.39039 12.057C5.39039 11.9188 5.38271 11.4579 5.38271 10.9663C3.91557 11.2351 3.53151 10.6053 3.41629 10.2826C3.34716 10.1137 3.06295 9.59132 2.81714 9.45306C2.60975 9.34552 2.31786 9.06899 2.80946 9.06131C3.27034 9.05363 3.60064 9.48378 3.70818 9.66046C4.23819 10.5438 5.07545 10.298 5.41343 10.1444C5.4672 9.76799 5.62083 9.50683 5.78982 9.36088C4.49167 9.21494 3.1244 8.70797 3.1244 6.47271C3.1244 5.83516 3.35484 5.30514 3.72354 4.89803C3.66209 4.75209 3.46238 4.15294 3.78499 3.34641C3.78499 3.34641 4.2766 3.19278 5.39807 3.94555C5.86663 3.81497 6.36592 3.74584 6.85752 3.74584C7.35681 3.74584 7.84841 3.81497 8.31697 3.94555C9.43845 3.1851 9.92237 3.34641 9.92237 3.34641C10.245 4.15294 10.0376 4.75209 9.98382 4.89803C10.3602 5.30514 10.583 5.82747 10.583 6.47271C10.583 8.71565 9.21569 9.21494 7.90986 9.36088C8.12494 9.54524 8.30929 9.89089 8.30929 10.4439C8.30929 11.2274 8.30161 11.8573 8.30161 12.0493C8.30161 12.203 8.40915 12.3873 8.70104 12.3259C11.0823 11.5193 12.6876 9.28407 12.6876 6.77228C12.6876 3.54612 10.0683 0.926788 6.83448 0.926788Z" fill="white"/>
</svg>
