<svg width="31" height="34" viewBox="0 0 31 34" fill="none" xmlns="http://www.w3.org/2000/svg">
<path d="M30.3379 0C30.3379 0.211838 30.3379 0.423676 30.3379 0.529595C30.3379 0.741433 30.2307 0.953271 30.2307 1.16511C29.9091 5.08411 29.5875 9.00312 29.1587 13.028C28.6226 18.6417 28.0866 24.3614 27.6578 29.9751C27.6578 30.3988 27.4434 30.6106 27.0146 30.7165C24.9778 31.2461 22.941 31.7757 20.9042 32.4112C19.0818 32.9408 17.3665 33.4704 15.5441 34C15.3297 34 15.1153 34 14.7937 34C14.6865 34 14.5793 33.8941 14.4721 33.8941C10.7201 32.8349 6.96806 31.8816 3.21603 30.8224C2.78722 30.7165 2.68002 30.5047 2.57282 30.081C2.35842 27.3271 2.14402 24.5732 1.82242 21.8193C1.28641 16.0997 0.750406 10.3801 0.321603 4.76636C0.321603 3.38941 0.107201 2.11838 0 0.847352C0 0.529595 0 0.317757 0 0C7.18246 0 14.4721 0 21.6546 0C24.549 0 27.4434 0 30.3379 0ZM6.86086 19.4891C7.07526 21.2897 7.18246 23.0903 7.39686 24.891C7.39686 25.1028 7.71847 25.4206 7.93287 25.4206C10.1841 26.0561 12.4353 26.6916 14.6865 27.3271C14.9009 27.433 15.2225 27.433 15.5441 27.3271C17.7954 26.6916 20.1538 26.0561 22.405 25.5265C22.8338 25.4206 22.941 25.2087 22.941 24.785C23.1554 21.9252 23.477 18.9595 23.6914 16.0997C23.7986 15.3583 23.7986 14.6168 23.9058 13.7695C19.2962 13.7695 14.6865 13.7695 10.0769 13.7695C9.96969 12.4984 9.86248 11.2274 9.75528 9.95639C14.6865 9.95639 19.4034 9.95639 24.2274 9.95639C24.3346 8.68536 24.4418 7.52025 24.549 6.24922C18.2242 6.24922 11.8993 6.24922 5.57445 6.24922C5.89605 10.0623 6.21765 13.7695 6.64646 17.5826C11.0417 17.5826 15.4369 17.5826 19.725 17.5826C19.6178 19.1713 19.4034 20.5483 19.2962 22.0312C19.2962 22.243 19.0818 22.4548 18.8674 22.5607C15.3297 23.7259 15.3297 23.6199 11.5777 22.6667C10.9345 22.4548 10.8273 22.243 10.7201 21.6075C10.7201 20.866 10.6129 20.1246 10.5057 19.4891C9.32648 19.4891 8.14727 19.4891 6.86086 19.4891Z" fill="#5E3D63"/>
</svg>
