<svg width="32" height="32" viewBox="0 0 32 32" fill="none" xmlns="http://www.w3.org/2000/svg">
<path d="M0.750008 0H31.25C31.625 0 32 0.250003 32 0.750003V31.25C32 31.625 31.75 32 31.25 32H0.750008C0.375008 32 0 31.75 0 31.25V0.750003C0.125 0.375003 0.375008 0 0.750008 0ZM24.625 23.75V8C24.625 7.625 24.375 7.25 23.875 7.25H21.625C21.25 7.25 20.875 7.5 20.875 8V12.25C20.875 12.75 20.375 13.125 19.875 12.875C17.75 11.875 14.75 12.5 13.375 15C12.25 17 12.25 19.125 13 21.125C13.625 23.25 15.375 24.625 17.5 24.625C19 24.625 20.375 24.125 21.25 22.75C21.25 22.75 21.375 22.625 21.375 22.5C21.375 23 21.5 23.5 21.5 24C21.5 24.125 21.625 24.25 21.75 24.25C22.5 24.25 23.25 24.25 24 24.25C24.375 24.375 24.625 24.125 24.625 23.75ZM10.875 8.125C10.75 8.125 10.625 8.125 10.5 8.125C9.50001 8.125 8.5 8.125 7.5 8.125C7.25 8.125 7.12499 8.25 7.12499 8.5C7.12499 13.625 7.12499 18.875 7.12499 24C7.12499 24.125 7.12499 24.25 7.12499 24.375H10.125C10.5 24.375 10.875 24.125 10.875 23.625V8.125Z" fill="#FEFBEA" fill-opacity="0.8"/>
<path d="M21.1249 18.3751C20.9999 19.0001 20.9999 19.6251 20.8749 20.1251C20.6249 21.0001 19.9999 21.6251 19.1249 21.6251C18.2499 21.7501 17.4999 21.3751 16.9999 20.6251C16.3749 19.6251 16.2499 18.6251 16.4999 17.5001C16.6249 16.8751 16.8749 16.2501 17.2499 15.7501C17.8749 15.1251 18.7499 14.8751 19.6249 15.1251C20.3749 15.3751 20.9999 16.2501 21.1249 17.0001C20.9999 17.6251 20.9999 18.0001 21.1249 18.3751C20.9999 18.3751 20.9999 18.3751 21.1249 18.3751Z" fill="#FEFBEA" fill-opacity="0.8"/>
</svg>
