<svg width="58" height="75" viewBox="0 0 58 75" fill="none" xmlns="http://www.w3.org/2000/svg">
<path d="M33.2509 0C37.2601 9.47119 18.8698 15.2672 17.1556 23.155C15.5868 30.4037 28.0504 38.8871 28.0649 38.8871C26.162 35.8947 24.782 33.3671 22.879 28.6896C19.6687 20.8018 42.4896 13.6838 33.2509 0ZM45.4094 13.1464C45.4094 13.1464 29.3287 14.1632 28.5153 24.6803C28.1521 29.3578 32.757 31.8273 32.9022 35.2264C33.0184 38.0155 30.1277 40.3252 30.1277 40.3252C30.1277 40.3252 35.2991 39.381 36.926 35.1393C38.7128 30.4182 33.4397 27.2079 33.9772 23.431C34.4856 19.814 45.4094 13.1464 45.4094 13.1464ZM49.3461 37.3763C47.661 37.3037 45.7581 37.9283 44.073 39.1631C47.3995 38.4222 50.2467 40.514 50.2467 42.9109C50.2467 48.3002 42.5623 53.3699 42.5623 53.3699C42.5623 53.3699 54.4594 52.0335 54.4594 43.1724C54.4448 39.5263 52.1497 37.5071 49.3461 37.3763ZM17.7803 37.4635C13.6403 37.6088 5.36023 38.2915 5.36023 41.4873C5.36023 45.9324 24.6512 46.281 38.4368 43.5501C38.4368 43.5501 42.1846 40.9353 43.1724 39.9766C34.137 41.8359 13.495 42.1265 13.495 40.4995C13.495 39.0033 20.1045 37.4635 20.1045 37.4635C20.1045 37.4635 19.1748 37.4199 17.7803 37.4635ZM16.531 45.6854C14.2649 45.6854 10.8948 47.4576 10.8948 49.1718C10.8948 52.629 27.9778 55.3019 40.5721 50.2467L36.1852 47.5593C27.6582 50.3629 11.868 49.4332 16.531 45.6854ZM18.6809 53.457C15.5868 53.457 13.5822 55.4181 13.5822 56.8562C13.5822 61.2867 32.0742 61.7225 39.4246 57.2194L34.7761 54.1834C29.2997 56.5366 15.5142 56.8853 18.6809 53.457ZM8.30908 57.4808C3.25391 57.3792 0 59.6743 0 61.5918C0 71.8184 51.772 71.3245 51.772 60.88C51.772 59.1514 49.7238 58.3234 48.9974 57.9312C53.2246 67.9253 6.71118 67.1409 6.71118 61.2432C6.71118 59.9067 10.1539 58.5558 13.3207 59.1804L10.6333 57.6697C9.83435 57.5389 9.0354 57.4954 8.30908 57.4808ZM57.2048 64.3663C49.3315 71.9782 29.4159 74.7091 9.36951 70.0026C29.4304 78.3843 57.1177 73.7213 57.2048 64.3663Z" fill="#5E3D63"/>
</svg>
