<svg width="44" height="13" viewBox="0 0 44 13" fill="none" xmlns="http://www.w3.org/2000/svg">
<g clip-path="url(#clip0_2_39)">
<path d="M0.768219 2.90988H2.37143V8.50752H5.19063V9.82266H0.768219V2.90988Z" fill="white"/>
<path d="M7.41882 3.41215C7.41882 3.84172 7.09275 4.19198 6.55608 4.19198C6.05338 4.19198 5.72051 3.84172 5.72051 3.41215C5.72051 2.96936 6.06017 2.63231 6.57646 2.63231C7.09275 2.63231 7.40524 2.96936 7.41882 3.41215ZM5.76127 4.8066H7.36448V9.82266H5.76127V4.8066Z" fill="white"/>
<path d="M8.32233 6.40593C8.32233 5.77809 8.30195 5.256 8.28157 4.8066H9.67419L9.74891 5.50713H9.78288C9.99347 5.17669 10.5098 4.69425 11.3725 4.69425C12.4255 4.69425 13.2135 5.38156 13.2135 6.85532V9.81606H11.6103V7.04037C11.6103 6.39271 11.3793 5.95653 10.8019 5.95653C10.3603 5.95653 10.0954 6.25392 9.97988 6.5381C9.93912 6.64384 9.92554 6.78263 9.92554 6.92802V9.81606H8.32233V6.40593Z" fill="white"/>
<path d="M15.7745 6.92141H15.7949C15.9104 6.70332 16.0395 6.49845 16.1618 6.3134L17.2011 4.8066H19.1304L17.2894 6.83549L19.3953 9.81605H17.4253L16.1685 7.75411L15.7677 8.24316V9.80944H14.1645V2.53979H15.7677V6.92141H15.7745Z" fill="white"/>
<path d="M20.6385 7.8136C20.6793 8.46126 21.345 8.76526 22.0923 8.76526C22.6425 8.76526 23.0841 8.69256 23.5121 8.54717L23.7227 9.60457C23.1928 9.82266 22.5542 9.92179 21.8545 9.92179C20.1086 9.92179 19.1032 8.93709 19.1032 7.37081C19.1032 6.10192 19.9116 4.69425 21.7051 4.69425C23.3694 4.69425 24.0012 5.95653 24.0012 7.19898C24.0012 7.46333 23.9672 7.70125 23.9468 7.8136H20.6385ZM22.527 6.74297C22.527 6.36627 22.3572 5.73183 21.6235 5.73183C20.951 5.73183 20.6725 6.33323 20.6317 6.74297H22.527Z" fill="white"/>
<path d="M29.6396 2.53979V8.32247C29.6396 8.88422 29.66 9.47901 29.6803 9.81605H28.2606L28.1994 9.08909H28.1654C27.8462 9.64423 27.2144 9.9284 26.5554 9.9284C25.3327 9.9284 24.3544 8.91065 24.3544 7.35759C24.3408 5.66574 25.4278 4.68103 26.6641 4.68103C27.3095 4.68103 27.7918 4.90573 28.0228 5.24278H28.0432V2.53979H29.6396ZM28.0364 6.92802C28.0364 6.84871 28.0364 6.73636 28.016 6.64384C27.9209 6.2341 27.5744 5.88383 27.0785 5.88383C26.3381 5.88383 25.9712 6.51827 25.9712 7.31133C25.9712 8.16386 26.406 8.69256 27.0649 8.69256C27.5269 8.69256 27.9073 8.38856 28.0024 7.94577C28.0228 7.83342 28.0364 7.70785 28.0364 7.58889V6.92802Z" fill="white"/>
<path d="M43.131 10.9263C43.131 11.574 42.5943 12.0961 41.9286 12.0961H32.4248C31.7591 12.0961 31.2224 11.574 31.2224 10.9263V1.54847C31.2292 0.900809 31.7659 0.378716 32.4248 0.378716H41.9354C42.6011 0.378716 43.1378 0.900809 43.1378 1.54847V10.9263H43.131Z" fill="#364B92" fill-opacity="0.8"/>
<path d="M35.1014 3.42534C35.1014 3.85491 34.7753 4.20517 34.2386 4.20517C33.7359 4.20517 33.403 3.85491 33.403 3.42534C33.403 2.98255 33.7427 2.6455 34.259 2.6455C34.7753 2.6455 35.0878 2.98255 35.1014 3.42534ZM33.4438 4.81979H35.047V9.82924H33.4438V4.81979Z" fill="white"/>
<path d="M36.0049 6.41916C36.0049 5.79132 35.9845 5.26923 35.9641 4.81983H37.3567L37.4314 5.52036H37.4654C37.676 5.18992 38.1923 4.70748 39.055 4.70748C40.108 4.70748 40.896 5.39479 40.896 6.86855V9.82928H39.2928V7.0536C39.2928 6.40594 39.0618 5.96976 38.4844 5.96976C38.0428 5.96976 37.7779 6.26715 37.6624 6.55133C37.6217 6.65707 37.6081 6.79586 37.6081 6.94125V9.82928H36.0049V6.41916Z" fill="white"/>
</g>
<defs>
<clipPath id="clip0_2_39">
<rect width="42.3628" height="11.7174" fill="white" transform="translate(0.768219 0.378716)"/>
</clipPath>
</defs>
</svg>
