<svg width="41" height="41" viewBox="0 0 41 41" fill="none" xmlns="http://www.w3.org/2000/svg">
<path fill-rule="evenodd" clip-rule="evenodd" d="M9.33297 6.95906C8.86857 6.95099 8.54029 7.00751 8.18799 7.08825V7.15285H8.25205C8.47624 7.61311 8.86857 7.91187 9.14081 8.30753C9.34898 8.75972 9.56517 9.20382 9.77334 9.65601L9.8374 9.59141C10.2297 9.30879 10.4139 8.86469 10.4059 8.17834C10.2457 8.00877 10.2217 7.79883 10.0856 7.60504C9.91747 7.33857 9.56517 7.18515 9.33297 6.95906ZM40.1112 39.8553C40.4155 40.0814 40.6157 40.4206 41 40.5578V40.4932C40.7918 40.2348 40.7438 39.8715 40.5516 39.5969C40.2794 39.3224 39.9991 39.0398 39.7269 38.7653C38.9182 37.6832 37.8933 36.7304 36.8044 35.9472C35.9317 35.3174 33.986 34.4695 33.6257 33.444L33.5616 33.3794C34.1782 33.3068 34.8988 33.0887 35.4673 32.9273C36.4201 32.6689 37.2768 32.7335 38.2617 32.4751C38.71 32.3459 39.1504 32.2167 39.5988 32.0875V31.8291C39.1024 31.3123 38.7421 30.626 38.1976 30.1657C36.7724 28.9464 35.2191 27.7191 33.6177 26.7017C32.7289 26.1364 31.632 25.7731 30.6952 25.2886C30.3749 25.1271 29.8225 25.0464 29.6143 24.7718C29.1179 24.1339 28.8536 23.3345 28.4693 22.5917C27.6686 21.0413 26.8839 19.3456 26.1793 17.7145C25.6989 16.6002 25.3867 15.5102 24.7782 14.5089C21.8877 9.7206 18.781 6.82986 13.9689 3.98757C12.9521 3.4062 11.719 3.17203 10.4139 2.85712C9.7173 2.81675 9.0127 2.7683 8.3161 2.72792C7.89174 2.55028 7.44336 2.01735 7.04301 1.76704C5.44965 0.749625 1.35816 -1.46284 0.173151 1.44405C-0.571485 3.277 1.2861 5.06958 1.95067 5.99817C2.41506 6.65222 3.01558 7.37894 3.35186 8.11374C3.56805 8.59822 3.60808 9.07463 3.80025 9.59141C4.26464 10.8511 4.66498 12.2157 5.2655 13.3784C5.56976 13.9679 5.89804 14.5816 6.28237 15.1064C6.51456 15.4294 6.91491 15.5748 6.97896 16.0673C6.58663 16.6245 6.5626 17.4804 6.34642 18.1829C5.35357 21.3401 5.72989 25.2725 7.17112 27.6141C7.6115 28.3328 8.6604 29.875 10.0936 29.2775C11.3507 28.7607 11.0705 27.1619 11.4308 25.7489C11.5108 25.4259 11.4628 25.1917 11.6229 24.9818V25.0464C12.0073 25.8135 12.3836 26.5886 12.7679 27.3557C13.6166 28.7284 15.1219 30.1738 16.395 31.1427C17.0516 31.6434 17.572 32.5154 18.4287 32.8061V32.7415H18.3647C18.1965 32.4831 17.9403 32.3701 17.7321 32.1682C17.2357 31.6757 16.6832 31.062 16.2669 30.5049C15.1059 28.9222 14.081 27.1781 13.1522 25.3774C12.7038 24.5134 12.3195 23.5606 11.9432 22.6805C11.7991 22.3413 11.7991 21.8326 11.4948 21.655C11.0865 22.301 10.4779 22.8177 10.1577 23.5768C9.64524 24.788 9.58118 26.2737 9.39702 27.8079L9.26891 27.8725C8.38016 27.6545 8.0759 26.734 7.73961 25.9507C6.9069 23.9563 6.75477 20.7426 7.48339 18.4493C7.67555 17.8518 8.53229 15.9866 8.17999 15.4375C8.01184 14.8884 7.46738 14.5735 7.16312 14.1536C6.7868 13.6368 6.41047 12.9586 6.14625 12.361C5.46567 10.8026 5.14539 9.05848 4.43279 7.48391C4.08849 6.73297 3.512 5.97395 3.03159 5.30375C2.50314 4.56088 1.91063 4.01987 1.50229 3.12358C1.35816 2.80867 1.15799 2.29997 1.37418 1.9689C1.44624 1.75089 1.54232 1.65399 1.7585 1.58132C2.12682 1.29063 3.15169 1.67821 3.53602 1.83971C4.5689 2.25959 5.41763 2.66333 6.28237 3.23663C6.69872 3.51117 7.11508 4.05217 7.61951 4.19752H8.196C9.09276 4.40746 10.0936 4.26211 10.9263 4.5205C12.4076 4.97269 13.7287 5.67518 14.9297 6.44228C18.5969 8.77586 21.5914 12.0946 23.6412 16.0592C23.9695 16.6971 24.1136 17.3027 24.4018 17.981C24.9863 19.3456 25.723 20.7506 26.3075 22.0829C26.892 23.4153 27.4524 24.7557 28.2771 25.87C28.7095 26.4514 30.3829 26.7663 31.1436 27.0893C31.672 27.3153 32.5448 27.5495 33.0492 27.8563C34.01 28.4458 34.9468 29.1402 35.8436 29.7781C36.292 30.1011 37.6852 30.8036 37.7492 31.3769C35.5153 31.3204 33.8019 31.5303 32.3446 32.144C31.9283 32.3217 31.2717 32.3217 31.1996 32.8465C31.4238 33.0887 31.4639 33.4521 31.648 33.7428C31.9923 34.3161 32.5848 35.0751 33.1133 35.4708C33.6898 35.9068 34.2823 36.3751 34.8908 36.7547C35.9877 37.4249 37.2048 37.8124 38.2617 38.4826C38.8862 38.9106 39.5027 39.4112 40.1112 39.8553Z" fill="#5E3D63"/>
</svg>
