<svg width="47" height="54" viewBox="0 0 47 54" fill="none" xmlns="http://www.w3.org/2000/svg">
<path d="M23.4895 54C22.7847 54 22.0694 53.8071 21.4487 53.4428L14.9584 49.5317C13.9906 48.9745 14.464 48.7816 14.7795 48.6745C16.0734 48.2137 16.3364 48.1173 17.7144 47.3136C17.8617 47.2279 18.051 47.26 18.1983 47.3565L23.1844 50.3675C23.3633 50.4747 23.6157 50.4747 23.784 50.3675L43.2131 38.9449C43.3919 38.8378 43.5076 38.6235 43.5076 38.4092V15.564C43.5076 15.339 43.3919 15.1354 43.2026 15.0176L23.784 3.60571C23.6052 3.49856 23.3633 3.49856 23.1844 3.60571L3.77641 15.0283C3.58706 15.1354 3.47135 15.3497 3.47135 15.5748V38.4092C3.47135 38.6235 3.58706 38.8378 3.77641 38.9342L9.09915 42.0631C11.9919 43.5311 13.7592 41.8059 13.7592 40.0593V17.5142C13.7592 17.1928 14.0116 16.9463 14.3272 16.9463H16.7887C17.0938 16.9463 17.3568 17.1928 17.3568 17.5142V40.07C17.3568 43.9919 15.2529 46.2421 11.6027 46.2421C10.4772 46.2421 9.59355 46.2421 7.13205 44.9991L2.04073 42.0095C0.778424 41.2702 0 39.8879 0 38.3985V15.564C0 14.0853 0.778424 12.6923 2.04073 11.953L21.4487 0.53041C22.6795 -0.176803 24.31 -0.176803 25.5302 0.53041L44.9593 11.9637C46.2216 12.703 47 14.0853 47 15.5748V38.4092C47 39.8879 46.2216 41.2702 44.9593 42.0202L25.5302 53.4428C24.9096 53.8071 24.2048 54 23.4895 54ZM39.1737 31.4871C39.1737 27.2116 36.3335 26.0758 30.3691 25.2721C24.331 24.4578 23.7209 24.0399 23.7209 22.604C23.7209 21.4146 24.2363 19.8288 28.707 19.8288C32.6938 19.8288 34.1665 20.7074 34.7766 23.4505C34.8292 23.7077 35.0607 23.9006 35.3236 23.9006H37.8483C38.006 23.9006 38.1533 23.8363 38.2585 23.7184C38.3637 23.6006 38.4163 23.4398 38.4058 23.2791C38.0166 18.5536 34.9344 16.357 28.707 16.357C23.1634 16.357 19.8603 18.7358 19.8603 22.7326C19.8603 27.0616 23.1529 28.2617 28.4651 28.7975C34.8292 29.4297 35.3236 30.3834 35.3236 31.6585C35.3236 33.8659 33.5774 34.8088 29.4855 34.8088C24.3415 34.8088 23.216 33.4908 22.8373 30.887C22.7952 30.6084 22.5638 30.4048 22.2798 30.4048H19.7657C19.4501 30.4048 19.2081 30.662 19.2081 30.9727C19.2081 34.3052 20.9859 38.2806 29.496 38.2806C35.6392 38.2699 39.1737 35.7946 39.1737 31.4871V31.4871Z" fill="#5E3D63"/>
</svg>
