<svg width="32" height="32" viewBox="0 0 32 32" fill="none" xmlns="http://www.w3.org/2000/svg">
<path d="M27.0866 32C19.7795 32 12.3465 32 5.03937 32C4.91339 32 4.91339 31.8715 4.78741 31.8715C2.01575 31.3574 0 29.0442 0 26.2169C0 19.4056 0 12.5944 0 5.78313C0 2.57028 2.51969 0.128514 5.66929 0C12.5984 0 19.5276 0 26.3307 0C28.9764 0 31.2441 1.7992 31.874 4.49799C31.874 4.75502 32 5.01205 32 5.26908C32 12.4659 32 19.5341 32 26.7309C32 26.8594 31.874 26.988 31.874 26.988C31.4961 29.3012 29.8583 31.2289 27.5906 31.743C27.4646 31.8715 27.2126 32 27.0866 32ZM10.4567 18.1205C11.0866 18.1205 11.5906 18.1205 12.2205 18.1205C13.6063 18.1205 14.9921 17.8635 16.126 16.8353C17.6378 15.5502 18.0157 13.751 17.5118 11.8233C17.1339 9.89558 15.748 8.86747 13.8583 8.35341C11.8425 7.83936 9.70079 8.2249 7.55906 8.2249C7.55906 8.48193 7.55906 8.61044 7.55906 8.86747C7.55906 9.25301 7.55906 9.76707 7.55906 10.1526C7.55906 14.1365 7.55906 17.992 7.55906 21.9759C7.55906 22.6185 7.55905 22.6185 8.31495 22.6185C8.94487 22.6185 9.44882 22.6185 10.0787 22.6185C10.4567 22.6185 10.5827 22.49 10.5827 22.1044C10.5827 20.9478 10.5827 19.7912 10.5827 18.7631C10.4567 18.6345 10.4567 18.3775 10.4567 18.1205ZM22.4252 13.1084C22.2992 12.7229 22.2992 12.3374 22.2992 12.0803C22.2992 11.9518 22.0473 11.6948 22.0473 11.6948C21.2913 11.6948 20.4094 11.6948 19.6535 11.6948C19.6535 13.1084 19.6535 14.2651 19.6535 15.5502C19.6535 17.7349 19.6535 19.7912 19.6535 21.9759C19.6535 22.3614 19.7795 22.6185 20.1575 22.49C20.7874 22.49 21.4173 22.49 22.0473 22.49C22.5512 22.49 22.6772 22.3614 22.6772 21.8474C22.6772 19.7912 22.6772 17.8635 22.6772 15.8072C22.6772 15.2932 22.8032 15.0361 23.3071 14.9076C24.063 14.6506 24.9449 14.5221 25.7008 14.3936C26.0787 14.3936 26.2047 14.2651 26.2047 13.8795C26.2047 13.2369 26.2047 12.5944 26.2047 12.0803C26.2047 11.4378 26.2047 11.3092 25.4488 11.4378C24.189 11.6948 23.3071 12.3374 22.4252 13.1084Z" fill="#FEFBEA" fill-opacity="0.8"/>
<path d="M10.5827 10.7952C11.5905 10.9237 12.4724 10.9237 13.3543 11.1807C14.3622 11.4377 14.7401 12.2088 14.7401 13.2369C14.7401 14.265 14.3622 15.0361 13.3543 15.2932C12.4724 15.6787 11.4646 15.6787 10.4567 15.5502C10.5827 14.008 10.5827 12.4658 10.5827 10.7952Z" fill="#FEFBEA" fill-opacity="0.8"/>
</svg>
