<svg width="40" height="40" viewBox="0 0 40 40" fill="none" xmlns="http://www.w3.org/2000/svg">
<path d="M40 20C40 25.8268 40 31.4961 40 37.3228C40 38.2677 39.6863 39.2126 38.902 39.685C38.4314 40 37.8039 40 37.3333 40C32.7843 40 28.2353 40 23.6863 40C16.7843 40 9.88235 40 2.98039 40C2.35294 40 1.72549 40 1.09804 39.5276C0.156863 38.8976 0 38.1102 0 37.1654C0 32.4409 0 27.874 0 23.1496C0 16.378 0 9.6063 0 2.99213C0 2.51969 0 2.04724 0.156863 1.73228C0.470588 0.787402 1.2549 0.15748 2.19608 0C2.35294 0 2.66667 0 2.82353 0C14.2745 0 25.7255 0 37.1765 0C38.5882 0 39.5294 0.629921 39.8431 1.73228C40 2.04724 40 2.51968 40 2.83465C40 8.50394 40 14.1732 40 20ZM6.58823 29.7638C8.31373 29.7638 9.88235 29.7638 11.451 29.7638C11.451 27.0866 11.451 24.5669 11.451 21.8898C11.6078 21.8898 11.7647 21.8898 11.9216 21.8898C13.1765 21.8898 14.4314 21.8898 15.6863 21.7323C17.098 21.5748 18.5098 20.9449 19.6078 20.1575C21.1765 18.8976 21.9608 17.3228 22.1176 15.2756C22.2745 12.9134 21.8039 10.8661 19.9216 9.29134C18.5098 8.18898 16.9412 7.71654 15.2157 7.55906C12.3922 7.24409 9.72549 7.55905 6.90196 7.87402C6.43137 7.87402 6.27451 8.18898 6.27451 8.50394C6.27451 15.4331 6.27451 22.3622 6.27451 29.1339C6.58824 29.4488 6.58823 29.6063 6.58823 29.7638ZM33.2549 17.6378C33.5686 16.6929 33.7255 15.5906 34.0392 14.4882C34.0392 14.3307 33.8824 14.1732 33.7255 14.1732C33.098 14.0157 32.4706 13.7008 31.6863 13.5433C29.3333 13.0709 27.1373 13.2283 25.098 14.6457C23.2157 15.9055 22.4314 18.4252 23.3725 20.315C24 21.7323 25.2549 22.5197 26.6667 23.1496C27.451 23.4646 28.3922 23.937 29.1765 24.252C29.6471 24.4094 29.8039 24.7244 29.8039 25.1968C29.8039 25.9843 29.4902 26.4567 28.549 26.6142C26.9804 26.7717 25.5686 26.4567 24.1569 25.8268C23.8431 25.6693 23.6863 25.6693 23.3725 25.5118C23.3725 25.6693 23.2157 25.8268 23.2157 25.8268C23.0588 26.7717 22.7451 27.5591 22.5882 28.5039C22.4314 28.9764 22.5882 29.1339 23.0588 29.2913C25.4118 30.2362 27.7647 30.3937 30.2745 29.9213C31.3725 29.6063 32.4706 29.1339 33.4118 28.3465C35.1373 26.6142 35.1373 23.4646 33.2549 21.7323C32.3137 20.9449 31.3725 20.4724 30.2745 20.1575C29.6471 19.8425 28.8627 19.685 28.2353 19.2126C27.451 18.7402 27.6078 17.7953 28.2353 17.3228C29.0196 16.8504 29.8039 17.0079 30.5882 17.1654C31.6863 17.1654 32.3137 17.4803 33.2549 17.6378Z" fill="#FEFBEA" fill-opacity="0.8"/>
<path d="M11.451 14.8032C11.451 13.8583 11.451 12.9134 11.451 12.126C11.451 11.6536 11.6078 11.4961 12.0784 11.4961C13.0196 11.4961 14.1176 11.4961 15.0588 11.6536C16.7843 11.9685 17.7255 13.5433 17.4118 15.4331C17.098 16.6929 16.3137 17.6378 15.0588 18.1103C13.9608 18.4252 13.0196 18.4252 11.9216 18.2677C11.6078 18.2677 11.451 18.1103 11.451 17.7953C11.6078 16.6929 11.451 15.7481 11.451 14.8032Z" fill="#FEFBEA" fill-opacity="0.8"/>
</svg>
