<svg width="25" height="23" viewBox="0 0 25 23" fill="none" xmlns="http://www.w3.org/2000/svg">
<path d="M24.6803 9.87354L19.7533 1.34812C19.3268 0.607917 18.2776 0 17.4197 0H7.57565C6.72253 0 5.66857 0.607917 5.24211 1.34812L0.319922 9.87354C-0.106641 10.6137 -0.106641 11.8246 0.319922 12.5649L5.24201 21.0951C5.66846 21.8354 6.71763 22.4433 7.57555 22.4433H17.4245C18.2776 22.4433 19.3266 21.8354 19.758 21.0952L24.6801 12.565C25.1067 11.8247 25.1067 10.6137 24.6801 9.87354H24.6803ZM11.4338 4.71615C11.4338 4.15729 11.8897 3.70135 12.4486 3.70135C13.0074 3.70135 13.4634 4.15729 13.4634 4.71615V10.7804C13.4634 11.3394 13.0074 11.7952 12.4486 11.7952C11.8897 11.7952 11.4338 11.3394 11.4338 10.7804V4.71615ZM12.4486 17.6634C8.65409 17.6634 5.56555 14.5749 5.56555 10.7804C5.57044 8.60375 6.59992 6.55948 8.34523 5.25542C8.4404 5.18431 8.54868 5.13272 8.66385 5.10359C8.77902 5.07446 8.89881 5.06838 9.01634 5.08568C9.13387 5.10299 9.24682 5.14335 9.3487 5.20444C9.45059 5.26553 9.53939 5.34615 9.61003 5.44167C9.68114 5.53684 9.73275 5.64512 9.76189 5.7603C9.79103 5.87548 9.79712 5.99529 9.77981 6.11283C9.76251 6.23037 9.72214 6.34333 9.66104 6.44522C9.59994 6.54711 9.51931 6.63593 9.42378 6.70656C7.17357 8.37823 6.70294 11.5599 8.37461 13.8101C10.0464 16.0604 13.228 16.5309 15.4783 14.8593C16.7676 13.9033 17.5275 12.3884 17.5275 10.7804C17.5254 9.98479 17.3372 9.2007 16.978 8.49078C16.6188 7.78087 16.0985 7.16482 15.4587 6.69187C15.0566 6.39771 14.9733 5.82896 15.2674 5.42698C15.5616 5.0249 16.1302 4.94156 16.5323 5.23583C18.2922 6.5349 19.3267 8.59396 19.3316 10.7804C19.3316 14.5798 16.243 17.6634 12.4486 17.6634Z" fill="#5E3D63"/>
</svg>
