<svg width="32" height="31" viewBox="0 0 32 31" fill="none" xmlns="http://www.w3.org/2000/svg">
<path d="M0 15.5V31H31.3491V0H0V15.5ZM25.263 14.2648C26.059 14.4586 26.6651 14.8158 27.2284 15.385C27.5162 15.6877 27.9448 16.2447 27.9815 16.3779C27.9938 16.4203 26.6284 17.3225 25.8018 17.825C25.7712 17.8432 25.6487 17.7221 25.514 17.5223C25.1099 16.941 24.6874 16.6928 24.0384 16.6443C23.0894 16.5838 22.4771 17.0742 22.4832 17.8977C22.4771 18.0975 22.5261 18.3033 22.6179 18.4789C22.8261 18.9088 23.2179 19.1631 24.4364 19.6838C26.6835 20.6344 27.6387 21.2701 28.2387 22.1602C28.9061 23.1592 29.053 24.7516 28.6061 25.9443C28.104 27.234 26.8733 28.1119 25.1344 28.3965C24.5956 28.4934 23.322 28.4752 22.7465 28.3723C21.4852 28.1482 20.2912 27.5367 19.5565 26.7254C19.2626 26.4105 18.7054 25.5871 18.7421 25.5326C18.7605 25.5145 18.8829 25.4297 19.0299 25.351C19.1768 25.2723 19.6973 24.9695 20.1932 24.685L21.0994 24.1643L21.2892 24.4428C21.5525 24.8424 22.1342 25.3873 22.4771 25.5689C23.4751 26.0957 24.8528 26.017 25.5263 25.4176C25.8018 25.1936 25.9549 24.8424 25.9365 24.4912C25.9365 24.134 25.8875 23.9705 25.7038 23.7041C25.4589 23.359 24.963 23.0684 23.5486 22.4629C21.9321 21.7727 21.2341 21.3488 20.5974 20.6646C20.1994 20.2166 19.9055 19.6838 19.734 19.1146C19.6177 18.6727 19.5871 17.5768 19.6789 17.1348C20.0096 15.5848 21.1974 14.5131 22.8934 14.1922C23.4384 14.0893 24.7242 14.1316 25.263 14.2648ZM17.9033 15.5605L17.9155 16.826H13.8316V28.2936H10.9416V16.826H6.86374V15.5848C6.86374 14.8945 6.88211 14.3193 6.90048 14.3012C6.91885 14.283 9.39861 14.2709 12.4049 14.277L17.8849 14.2951L17.9033 15.5605Z" fill="#5E3D63"/>
</svg>
