<svg width="45" height="45" viewBox="0 0 45 45" fill="none" xmlns="http://www.w3.org/2000/svg">
<path d="M0 37.5904C0 27.6506 0 17.7108 0 7.59036C0 7.40963 0 7.22892 0 7.04819C0.527344 3.07229 3.86719 0 7.91016 0C17.5781 0 27.2461 0 36.9141 0C37.4414 0 38.1445 -2.76031e-06 38.6719 0.18072C42.1875 0.903612 45 4.33735 45 8.13253C45 17.7108 45 27.2892 45 36.8675C45 37.2289 45 37.5904 45 37.9518C44.4727 41.3855 42.5391 43.7349 39.1992 44.6385C38.6719 44.8193 38.1445 44.8193 37.793 45C27.7734 45 17.7539 45 7.73438 45C7.55859 45 7.38281 45 7.20703 45C4.04297 44.4578 1.40625 42.1084 0.703125 39.0361C0.175781 38.494 0 38.1325 0 37.5904ZM38.1445 20.0602C38.1445 16.8072 38.1445 13.7349 38.1445 10.4819C38.1445 10.1205 38.1445 10.1205 37.793 10.1205C36.5625 10.1205 35.5078 10.1205 34.2773 10.1205C33.9258 10.1205 33.9258 10.1205 33.9258 10.4819C33.9258 12.2892 33.9258 14.2771 33.9258 16.0843C33.9258 16.2651 33.9258 16.2651 33.5742 16.2651C32.5195 16.2651 31.4648 16.2651 30.4102 16.4458C27.5977 17.1687 25.6641 18.7952 24.6094 21.6867C24.082 23.1325 24.082 24.759 24.2578 26.2048C24.6094 28.1928 25.4883 29.8193 27.2461 30.9036C28.4766 31.8072 29.8828 32.1687 31.4648 32.1687C33.5742 32.1687 35.8594 31.9879 37.793 31.0843C38.1445 30.9036 38.1445 30.9036 38.1445 30.5422C38.1445 29.6386 37.9688 28.9157 37.9688 28.012C38.1445 25.4819 38.1445 22.7711 38.1445 20.0602ZM24.082 31.8072C24.082 31.6265 23.9062 31.4458 23.9062 31.4458C21.9727 28.1928 20.2148 25.1205 18.2812 21.8675C18.1055 21.506 18.1055 21.3253 18.2812 21.1446C20.0391 18.0723 21.7969 15 23.7305 12.1084C23.9062 11.9277 23.7305 11.747 23.5547 11.747C22.3242 11.747 20.918 11.747 19.6875 11.747C19.5117 11.747 19.5117 11.747 19.3359 11.9277C18.1055 14.2771 16.875 16.8072 15.6445 19.1566C15.6445 19.1566 15.6445 19.3373 15.4688 19.3373C15.4688 19.3373 15.4688 19.1566 15.293 19.1566C14.9414 18.4337 14.5898 17.5301 14.0625 16.8072C13.1836 15.1807 12.3047 13.7349 11.6016 12.1084C11.4258 11.9277 11.25 11.747 11.0742 11.747C9.66797 11.747 8.26172 11.747 6.85547 11.747C6.50391 11.747 6.50391 11.747 6.67969 12.1084C8.4375 15.3614 10.3711 18.4337 12.1289 21.6867C12.1289 21.8675 12.1289 21.8675 12.1289 22.0482C11.25 23.494 10.3711 24.9398 9.49219 26.5663C8.4375 28.1928 7.55859 30 6.50391 31.6265C6.50391 31.8072 6.50391 31.8072 6.32812 31.9879H6.50391C7.91016 31.9879 9.31641 31.9879 10.7227 31.9879C10.8984 31.9879 11.0742 31.8072 11.0742 31.8072C12.1289 29.6385 13.3594 27.4699 14.4141 25.3012C14.5898 25.1205 14.5898 24.759 14.7656 24.5783L14.9414 24.759C16.1719 27.1084 17.4023 29.2771 18.457 31.6265C18.6328 31.9879 18.8086 32.1687 19.3359 32.1687C20.7422 32.1687 22.1484 32.1687 23.3789 32.1687C23.7305 31.8072 23.9062 31.8072 24.082 31.8072Z" fill="#FEFBEA" fill-opacity="0.8"/>
<path d="M34.1016 19.8794V20.0602C34.1016 22.771 34.1016 25.4818 34.1016 28.012C34.1016 28.1927 34.1016 28.1927 33.9258 28.3734C32.8711 28.5541 31.8164 28.5541 30.7617 28.012C29.8828 27.6505 29.3555 26.9276 29.0039 26.2047C28.4766 25.1204 28.4766 23.8553 28.8281 22.771C29.1797 21.1445 30.4102 20.2409 31.8164 19.8794C32.5195 19.6987 33.5742 19.6987 34.1016 19.8794Z" fill="#FEFBEA" fill-opacity="0.8"/>
</svg>
