<svg width="25" height="25" viewBox="0 0 25 25" fill="none" xmlns="http://www.w3.org/2000/svg">
<path d="M19.2708 2.08331H6.77083C4.76042 2.08331 3.125 3.71873 3.125 5.72915V22.9166L10.4167 19.2708L17.7083 22.9166V13.5416H22.9167V5.72915C22.9167 3.71873 21.2812 2.08331 19.2708 2.08331ZM15.625 19.5458L10.4167 16.9416L5.20833 19.5458V5.72915C5.20833 4.86769 5.90937 4.16665 6.77083 4.16665H15.9917C15.7533 4.65319 15.6279 5.18734 15.625 5.72915V19.5458ZM20.8333 11.4583H17.7083V5.72915C17.7083 4.86769 18.4094 4.16665 19.2708 4.16665C20.1323 4.16665 20.8333 4.86769 20.8333 5.72915V11.4583Z" fill="#FFAF66"/>
</svg>
