<svg width="16" height="16" viewBox="0 0 16 16" fill="none" xmlns="http://www.w3.org/2000/svg">
<path d="M12.6667 3.33334H8.66667V1.33334H7.33334V3.33334H3.33334C2.23067 3.33334 1.33334 4.23068 1.33334 5.33334V12C1.33334 12.7353 1.93134 13.3333 2.66667 13.3333H13.3333C14.0687 13.3333 14.6667 12.7353 14.6667 12V5.33334C14.6667 4.23068 13.7693 3.33334 12.6667 3.33334ZM3.33334 4.66668H12.6667C12.8435 4.66668 13.013 4.73691 13.1381 4.86194C13.2631 4.98696 13.3333 5.15653 13.3333 5.33334L13.334 7.41334C12.7367 7.56534 12.3547 7.90268 12.0567 8.16801C11.7187 8.46801 11.4953 8.66668 10.998 8.66668C10.5013 8.66668 10.278 8.46801 9.94 8.16868C9.54333 7.81601 9.00067 7.33334 7.99667 7.33334C6.99334 7.33334 6.45067 7.81601 6.054 8.16868C5.716 8.46868 5.49334 8.66668 4.99667 8.66668C4.50134 8.66668 4.27867 8.46868 3.942 8.16868C3.644 7.90334 3.26334 7.56534 2.66667 7.41334V5.33334C2.66667 5.15653 2.73691 4.98696 2.86193 4.86194C2.98696 4.73691 3.15652 4.66668 3.33334 4.66668ZM2.66667 12V8.85734C2.794 8.93934 2.916 9.04001 3.05534 9.16468C3.452 9.51734 3.994 10 4.99667 10C6 10 6.54267 9.51734 6.93934 9.16468C7.27734 8.86468 7.5 8.66668 7.99667 8.66668C8.49334 8.66668 8.71667 8.86534 9.05467 9.16468C9.45133 9.51734 9.994 10 10.998 10C12.002 10 12.5453 9.51734 12.942 9.16468C13.0827 9.03934 13.2053 8.93801 13.334 8.85534L13.3347 12H2.66667Z" fill="#5D4850"/>
</svg>
