<svg width="16" height="16" viewBox="0 0 16 16" fill="none" xmlns="http://www.w3.org/2000/svg">
<path d="M8 1.33334C5.05934 1.33334 2.66667 3.72601 2.66667 6.66334C2.64734 10.96 7.41067 14.3993 7.61334 14.5427C7.72617 14.6233 7.86135 14.6666 8 14.6666C8.13865 14.6666 8.27384 14.6233 8.38667 14.5427C8.58934 14.3993 13.3527 10.96 13.3333 6.66668C13.3333 3.72601 10.9407 1.33334 8 1.33334ZM8 13.1567C6.926 12.2847 3.986 9.62734 4 6.66668C4 4.46068 5.794 2.66668 8 2.66668C10.206 2.66668 12 4.46068 12 6.67001C12.014 9.62801 9.07467 12.2853 8 13.1567Z" fill="#5D4850"/>
<path d="M7.33333 7.724L5.80467 6.19533L4.862 7.138L7.33333 9.60933L11.138 5.80467L10.1953 4.862L7.33333 7.724Z" fill="#5D4850"/>
</svg>
