<svg width="16" height="16" viewBox="0 0 16 16" fill="none" xmlns="http://www.w3.org/2000/svg">
<path d="M8 2.66666C6.162 2.66666 4.66666 4.16199 4.66666 5.99999H6C6 4.89732 6.89733 3.99999 8 3.99999C9.10266 3.99999 10 4.89732 10 5.99999C10 6.71266 9.69733 6.97666 9.01266 7.50332C8.758 7.69932 8.47066 7.92066 8.19533 8.19532C7.32066 9.06932 7.33 9.93132 7.33333 9.99999V11.3333H8.66666V9.99399C8.66666 9.97799 8.682 9.59332 9.138 9.13799C9.35133 8.92466 9.59266 8.73932 9.82533 8.55999C10.532 8.01599 11.3333 7.39999 11.3333 5.99999C11.3333 4.16199 9.838 2.66666 8 2.66666ZM7.33333 12H8.66666V13.3333H7.33333V12Z" fill="#5D4850"/>
</svg>
