<svg width="10" height="10" viewBox="0 0 10 10" fill="none" xmlns="http://www.w3.org/2000/svg">
<path d="M4.5005 4H5.5005V6.5H4.5005V4ZM4.5 7H5.5V8H4.5V7Z" fill="#5D4850"/>
<path d="M5.884 1.09997C5.71 0.77247 5.371 0.56897 5 0.56897C4.629 0.56897 4.29001 0.77247 4.11601 1.10047L0.447005 8.03197C0.365589 8.18418 0.325259 8.35499 0.329994 8.52755C0.334729 8.70011 0.384364 8.86845 0.474005 9.01597C0.562354 9.16416 0.687825 9.28675 0.838029 9.37162C0.988234 9.4565 1.15798 9.50074 1.3305 9.49997H8.66951C9.02351 9.49997 9.344 9.31897 9.5265 9.01597C9.616 8.8684 9.66556 8.70007 9.67029 8.52754C9.67502 8.35502 9.63478 8.18423 9.5535 8.03197L5.884 1.09997ZM1.3305 8.49997L5 1.56847L8.672 8.49997H1.3305Z" fill="#5D4850"/>
</svg>
